<svg xmlns="http://www.w3.org/2000/svg" version="1.1" xmlns:xlink="http://www.w3.org/1999/xlink" xmlns:svgjs="http://svgjs.dev/svgjs" width="1500" height="939" viewBox="0 0 1500 939"><g transform="matrix(1,0,0,1,-0.9090909090909918,177.54037550819476)"><svg viewBox="0 0 396 248" data-background-color="#0c1d36" preserveAspectRatio="xMidYMid meet" height="939" width="1500" xmlns="http://www.w3.org/2000/svg" xmlns:xlink="http://www.w3.org/1999/xlink"><g id="tight-bounds" transform="matrix(1,0,0,1,0.2400000000000091,0.4000000000000057)"><svg viewBox="0 0 395.52 247.2" height="247.2" width="395.52"><g><svg></svg></g><g><svg viewBox="0 0 395.52 247.2" height="247.2" width="395.52"><g transform="matrix(1,0,0,1,75.54432,64.29689057687)"><svg viewBox="0 0 244.43135999999998 118.60621884625999" height="118.60621884625999" width="244.43135999999998"><g><svg viewBox="0 0 244.43135999999998 118.60621884625999" height="118.60621884625999" width="244.43135999999998"><g><svg viewBox="0 0 244.43136 118.60621884626" height="118.60621884625999" width="244.43135999999998"><g><svg viewBox="0 0 244.43136 118.60621884626" height="118.60621884626" width="244.43136"><g id="textblocktransform"><svg viewBox="0 0 244.43136 118.60621884626" height="118.60621884626" width="244.43136" id="textblock"><g><svg viewBox="0 0 244.43136 118.60621884626" height="118.60621884626" width="244.43136"><g transform="matrix(1,0,0,1,0,0)"><svg width="244.43136" viewBox="1.1499999999999986 -39.4 182.14999999999998 83.85" height="118.60621884626" data-palette-color="#f9cc0b"><svg></svg><svg></svg><g class="wordmark-text-0" data-fill-palette-color="primary" id="text-0"><path d="M12.05-38v0c1.267 0 2.167-0.1 2.7-0.3 0.533-0.2 0.933-0.567 1.2-1.1v0h1.7l2.2 9.05-1.7 0.45c-0.633-1.667-1.217-2.933-1.75-3.8-0.533-0.867-1.09-1.467-1.67-1.8-0.587-0.333-1.33-0.5-2.23-0.5v0c-1.333 0-2.457 0.507-3.37 1.52-0.92 1.02-1.38 2.28-1.38 3.78v0 23.9c0 1.433 0.427 2.617 1.28 3.55 0.847 0.933 1.92 1.4 3.22 1.4v0c1.567 0 2.833-0.693 3.8-2.08 0.967-1.38 1.45-3.22 1.45-5.52v0-0.8h2.15v0.05c0 3.633-0.673 6.323-2.02 8.07-1.353 1.753-3.43 2.63-6.23 2.63v0c-2.9 0-5.167-0.95-6.8-2.85-1.633-1.9-2.45-4.517-2.45-7.85v0-17.1c0-3.5 0.84-6.157 2.52-7.97 1.687-1.82 4.147-2.73 7.38-2.73zM27.7-8.95l-1.05 4.9c-0.133 0.7 0.06 1.24 0.58 1.62 0.513 0.387 1.32 0.58 2.42 0.58v0 1.85h-8.35v-1.85c0.967 0 1.683-0.167 2.15-0.5 0.467-0.333 0.783-0.9 0.95-1.7v0l7.5-34.15h2.4l7.75 34.25c0.167 0.833 0.457 1.393 0.87 1.68 0.42 0.28 1.13 0.42 2.13 0.42v0 1.85h-11.6v-1.85c1.2 0 2.043-0.16 2.53-0.48 0.48-0.313 0.637-0.837 0.47-1.57v0l-1.05-5.05zM31.65-26.9l-3.5 15.95h6.8zM46.7 0v-1.85c1.067 0 1.833-0.167 2.3-0.5 0.467-0.333 0.7-0.883 0.7-1.65v0-29.5c0-0.767-0.233-1.317-0.7-1.65-0.467-0.333-1.233-0.5-2.3-0.5v0-1.85h12.8c6.267 0 9.4 3.55 9.4 10.65v0 3.15c0 7.067-3.133 10.6-9.4 10.6v0h-2.2v-2h2.2c1.1 0 1.983-0.45 2.65-1.35 0.667-0.9 1-2.083 1-3.55v0-10.7c0-1.433-0.34-2.593-1.02-3.48-0.687-0.88-1.563-1.32-2.63-1.32v0h-4.2v31.5c0 0.767 0.233 1.317 0.7 1.65 0.467 0.333 1.233 0.5 2.3 0.5v0 1.85zM82.1-38v0c3.033 0 5.4 0.94 7.1 2.82 1.7 1.887 2.55 4.513 2.55 7.88v0 17.1c0 3.5-0.823 6.157-2.47 7.97-1.653 1.82-4.047 2.73-7.18 2.73v0c-3.167 0-5.6-0.923-7.3-2.77-1.7-1.853-2.55-4.497-2.55-7.93v0-17.1c0-3.467 0.843-6.117 2.53-7.95 1.68-1.833 4.12-2.75 7.32-2.75zM82.1-1.5v0c1.2 0 2.193-0.45 2.98-1.35 0.78-0.9 1.17-2.05 1.17-3.45v0-24.9c0-1.4-0.39-2.55-1.17-3.45-0.787-0.9-1.78-1.35-2.98-1.35v0c-1.167 0-2.15 0.457-2.95 1.37-0.8 0.92-1.2 2.063-1.2 3.43v0 24.9c0 1.433 0.383 2.59 1.15 3.47 0.767 0.887 1.767 1.33 3 1.33zM95.6 0v-1.85c1.067 0 1.833-0.167 2.3-0.5 0.467-0.333 0.7-0.883 0.7-1.65v0-29.5c0-0.767-0.233-1.317-0.7-1.65-0.467-0.333-1.233-0.5-2.3-0.5v0-1.85h14.75c0.767 0 1.317-0.143 1.65-0.43 0.333-0.28 0.55-0.77 0.65-1.47v0h1.7l2.2 9.05-1.7 0.45c-0.567-1.6-1.123-2.8-1.67-3.6-0.553-0.8-1.253-1.333-2.1-1.6-0.853-0.267-2.03-0.4-3.53-0.4v0h-3.35v14.75h1.3c2.3 0 3.45-1.2 3.45-3.6v0h1.85v9.2h-1.85c0-1.267-0.273-2.183-0.82-2.75-0.553-0.567-1.43-0.85-2.63-0.85v0h-1.3v16.75h5.4c1.5 0 2.66-0.167 3.48-0.5 0.813-0.333 1.42-0.967 1.82-1.9 0.4-0.933 0.7-2.317 0.9-4.15v0h1.75v10.1h-1.85c-0.133-0.567-0.457-0.967-0.97-1.2-0.52-0.233-1.347-0.35-2.48-0.35v0zM119.75 0v-1.85c1.067 0 1.833-0.167 2.3-0.5 0.467-0.333 0.7-0.883 0.7-1.65v0-29.5c0-0.767-0.233-1.317-0.7-1.65-0.467-0.333-1.233-0.5-2.3-0.5v0-1.85h11.6v1.85c-1.067 0-1.833 0.167-2.3 0.5-0.467 0.333-0.7 0.883-0.7 1.65v0 29.5c0 0.767 0.233 1.317 0.7 1.65 0.467 0.333 1.233 0.5 2.3 0.5v0 1.85zM134.15 0v-1.85c1.067 0 1.833-0.167 2.3-0.5 0.467-0.333 0.7-0.883 0.7-1.65v0-29.5c0-0.767-0.233-1.317-0.7-1.65-0.467-0.333-1.233-0.5-2.3-0.5v0-1.85h12.5c6.267 0 9.4 3.583 9.4 10.75v0c0 2.433-0.357 4.4-1.07 5.9-0.72 1.5-1.963 2.767-3.73 3.8v0c1.6 1.033 2.75 2.307 3.45 3.82 0.7 1.52 1.05 3.447 1.05 5.78v0 0.65c0 1.467 0.333 2.657 1 3.57 0.667 0.92 1.55 1.38 2.65 1.38v0h0.55v1.85h-0.55c-3.233 0-5.607-0.793-7.12-2.38-1.52-1.58-2.28-4.037-2.28-7.37v0-1.4c0-1.467-0.34-2.667-1.02-3.6-0.687-0.933-1.563-1.4-2.63-1.4v0h-1.2v-2h1.5c1.133 0 2.043-0.45 2.73-1.35 0.68-0.9 1.02-2.083 1.02-3.55v0-7.65c0-1.467-0.333-2.633-1-3.5-0.667-0.867-1.583-1.3-2.75-1.3v0h-3.9v31.5c0 0.767 0.233 1.317 0.7 1.65 0.467 0.333 1.233 0.5 2.3 0.5v0 1.85zM165.95-8.95l-1.05 4.9c-0.133 0.7 0.06 1.24 0.58 1.62 0.513 0.387 1.32 0.58 2.42 0.58v0 1.85h-8.35v-1.85c0.967 0 1.683-0.167 2.15-0.5 0.467-0.333 0.783-0.9 0.95-1.7v0l7.5-34.15h2.4l7.75 34.25c0.167 0.833 0.46 1.393 0.88 1.68 0.413 0.28 1.12 0.42 2.12 0.42v0 1.85h-11.6v-1.85c1.2 0 2.043-0.16 2.53-0.48 0.48-0.313 0.637-0.837 0.47-1.57v0l-1.05-5.05zM169.9-26.9l-3.5 15.95h6.8z" fill="#f9cc0b" fill-rule="nonzero" stroke="none" stroke-width="1" stroke-linecap="butt" stroke-linejoin="miter" stroke-miterlimit="10" stroke-dasharray="" stroke-dashoffset="0" font-family="none" font-weight="none" font-size="none" text-anchor="none" style="mix-blend-mode: normal" data-fill-palette-color="primary" opacity="1"></path><path d="M10.5 7.95v0c-1.133 0-2.123 0.423-2.97 1.27-0.853 0.853-1.28 1.863-1.28 3.03v0c0 0.933 0.227 1.857 0.68 2.77 0.447 0.92 1.187 1.963 2.22 3.13v0l5.05 5.9c1.433 1.667 2.543 3.107 3.33 4.32 0.78 1.22 1.33 2.387 1.65 3.5 0.313 1.12 0.47 2.363 0.47 3.73v0c0 1.633-0.417 3.117-1.25 4.45-0.833 1.333-1.95 2.4-3.35 3.2-1.4 0.8-2.95 1.2-4.65 1.2v0c-1.233 0-2.233-0.117-3-0.35-0.767-0.233-1.373-0.467-1.82-0.7-0.453-0.233-0.847-0.35-1.18-0.35v0c-0.333 0-0.65 0.09-0.95 0.27-0.3 0.187-0.483 0.397-0.55 0.63v0h-1.75v-10.6h1.7c0.467 2.667 1.3 4.757 2.5 6.27 1.2 1.52 2.6 2.28 4.2 2.28v0c1.4 0 2.51-0.467 3.33-1.4 0.813-0.933 1.22-2.2 1.22-3.8v0c0-1.3-0.317-2.61-0.95-3.93-0.633-1.313-1.65-2.77-3.05-4.37v0l-4.2-4.85c-1.733-2.033-2.95-3.76-3.65-5.18-0.7-1.413-1.05-2.92-1.05-4.52v0c0-1.4 0.417-2.7 1.25-3.9 0.833-1.2 1.927-2.167 3.28-2.9 1.347-0.733 2.787-1.1 4.32-1.1v0c1.267 0 2.167-0.1 2.7-0.3 0.533-0.2 0.933-0.567 1.2-1.1v0h1.7l2.2 9.05-1.7 0.45c-0.633-1.667-1.217-2.933-1.75-3.8-0.533-0.867-1.09-1.467-1.67-1.8-0.587-0.333-1.33-0.5-2.23-0.5zM27.25 35l-1.05 4.9c-0.133 0.7 0.06 1.24 0.58 1.62 0.513 0.387 1.32 0.58 2.42 0.58v0 1.85h-8.35v-1.85c0.967 0 1.683-0.167 2.15-0.5 0.467-0.333 0.783-0.9 0.95-1.7v0l7.5-34.15h2.4l7.75 34.25c0.167 0.833 0.46 1.393 0.88 1.68 0.413 0.28 1.12 0.42 2.12 0.42v0 1.85h-11.6v-1.85c1.2 0 2.043-0.16 2.53-0.48 0.48-0.313 0.637-0.837 0.47-1.57v0l-1.05-5.05zM31.2 17.05l-3.5 15.95h6.8zM46.25 43.95v-1.85c1.067 0 1.833-0.167 2.3-0.5 0.467-0.333 0.7-0.883 0.7-1.65v0-29.5c0-0.767-0.233-1.317-0.7-1.65-0.467-0.333-1.233-0.5-2.3-0.5v0-1.85h9.85l7.35 27.55 7-27.55h9.6v1.85c-1.133 0-1.917 0.157-2.35 0.47-0.433 0.32-0.65 0.88-0.65 1.68v0 29.5c0 0.767 0.233 1.317 0.7 1.65 0.467 0.333 1.233 0.5 2.3 0.5v0 1.85h-11.5v-1.85c1.067 0 1.833-0.167 2.3-0.5 0.467-0.333 0.7-0.883 0.7-1.65v0-28.7l-8.4 32.7h-2.3l-9.25-32.05v28.05c0 0.767 0.233 1.317 0.7 1.65 0.467 0.333 1.233 0.5 2.3 0.5v0 1.85zM82.05 8.3v0-1.85h11.6v1.85c-1.067 0-1.833 0.167-2.3 0.5-0.467 0.333-0.7 0.883-0.7 1.65v0 25.7c0 1.833 0.467 3.283 1.4 4.35 0.933 1.067 2.183 1.6 3.75 1.6v0c1.567 0 2.833-0.693 3.8-2.08 0.967-1.38 1.45-3.22 1.45-5.52v0-24.05c0-0.767-0.233-1.317-0.7-1.65-0.467-0.333-1.233-0.5-2.3-0.5v0-1.85h8.35v1.85c-1.067 0-1.833 0.167-2.3 0.5-0.467 0.333-0.7 0.883-0.7 1.65v0 23.3c0 7.133-2.817 10.7-8.45 10.7v0c-3.167 0-5.607-0.923-7.32-2.77-1.72-1.853-2.58-4.497-2.58-7.93v0-23.3c0-0.767-0.233-1.317-0.7-1.65-0.467-0.333-1.233-0.5-2.3-0.5zM108.4 43.95v-1.85c1.067 0 1.833-0.167 2.3-0.5 0.467-0.333 0.7-0.883 0.7-1.65v0-29.5c0-0.767-0.233-1.317-0.7-1.65-0.467-0.333-1.233-0.5-2.3-0.5v0-1.85h11.6v1.85c-1.067 0-1.833 0.167-2.3 0.5-0.467 0.333-0.7 0.883-0.7 1.65v0 29.5c0 0.767 0.233 1.317 0.7 1.65 0.467 0.333 1.233 0.5 2.3 0.5v0 1.85z" fill="#f9cc0b" fill-rule="nonzero" stroke="none" stroke-width="1" stroke-linecap="butt" stroke-linejoin="miter" stroke-miterlimit="10" stroke-dasharray="" stroke-dashoffset="0" font-family="none" font-weight="none" font-size="none" text-anchor="none" style="mix-blend-mode: normal" data-fill-palette-color="primary" opacity="1"></path></g></svg></g></svg></g></svg></g></svg></g><g></g></svg></g></svg></g></svg></g><g><path d="M99.259 51.252A122.216 122.216 0 0 1 296.261 51.252L291.278 51.252A117.233 117.233 0 0 0 104.242 51.252L99.259 51.252M99.259 195.948A122.216 122.216 0 0 0 296.261 195.948L291.278 195.948A117.233 117.233 0 0 1 104.242 195.948L99.259 195.948" fill="#f9cc0b" stroke="transparent" data-fill-palette-color="tertiary"></path></g></svg></g><defs></defs></svg><rect width="395.52" height="247.2" fill="none" stroke="none" visibility="hidden"></rect></g></svg></g></svg>